<?xml version="1.0" encoding="UTF-8"?>
<svg width="72px" height="27px" viewBox="0 0 72 27" version="1.1" xmlns="http://www.w3.org/2000/svg" xmlns:xlink="http://www.w3.org/1999/xlink">
    <!-- Generator: Sketch 48 (47235) - http://www.bohemiancoding.com/sketch -->
    <title>v2_text</title>
    <desc>Created with Sketch.</desc>
    <defs></defs>
    <g id="vLogin-001" stroke="none" stroke-width="1" fill="none" fill-rule="evenodd" transform="translate(-490.000000, -160.000000)">
        <g id="Group-2" transform="translate(450.000000, 120.000000)" fill="#000000">
            <path d="M77.190939,51.0454545 L80.0909091,51.0454545 L73.1363636,67 L75.2427885,55.9545455 L72.3181818,55.9545455 L75.3607955,40.4090909 L79.2727273,40.4090909 L77.190939,51.0454545 Z M40,40.4090909 L51.4273214,40.4090909 L51.9034576,43 L45.1014818,52.5 L53.6889555,52.5 L54.3181818,55.9545455 L40,55.9545455 L40,53.3636364 L47.2270992,43.8636364 L40,43.8636364 L40,40.4090909 Z M81.7272727,55.9545455 L81.7272727,40.4090909 L85.4110727,40.4090909 L92.3616546,49.9090909 L92.3616546,40.4090909 L96.0454545,40.4090909 L96.0454545,55.9545455 L92.3616546,55.9545455 L85.4110727,46.4545455 L85.4110727,55.9545455 L81.7272727,55.9545455 Z M105.502674,52.9186603 C106.651368,52.9186603 107.705122,52.5145487 108.527937,51.8415275 L108.534759,49.9043062 L105.069519,49.9043062 L105.069519,46.8899522 L112,46.8899522 L112,55.9330144 L108.126626,55.9376727 C107.302249,56.2138835 106.419787,56.3636364 105.502674,56.3636364 C100.963217,56.3636364 97.2727273,52.6947284 97.2727273,48.1818182 C97.2727273,43.6689079 100.963217,40 105.502674,40 C107.773583,40 109.83203,40.9181819 111.322269,42.4008808 L108.877084,44.8375967 C108.01443,43.9773229 106.821086,43.4449761 105.502674,43.4449761 C102.871199,43.4449761 100.737968,45.5657325 100.737968,48.1818182 C100.737968,50.7979038 102.871199,52.9186603 105.502674,52.9186603 Z M56.8887782,55.9545455 L53.9090909,40.4090909 L57.5395265,40.4090909 L59.2520001,49.4772727 L62.0433404,40.4090909 L64.1839323,40.4090909 L66.9581312,49.4772727 L68.6706047,40.4090909 L72.3181818,40.4090909 L69.3213531,55.9545455 L65.673776,55.9545455 L63.1050656,48.1818182 L60.5363553,55.9545455 L56.8887782,55.9545455 Z" id="v2_text"></path>
        </g>
    </g>
</svg>